<svg id="图层_1" data-name="图层 1" xmlns="http://www.w3.org/2000/svg" viewBox="0 0 500 500"><path d="M392.82,408.89l-.43-.35L295.9,305.34,326.23,199.2q2.75-9.78,3.81-14.41A33.93,33.93,0,0,0,331.1,178a10.22,10.22,0,0,0-3.39-8,12.91,12.91,0,0,0-8.91-3H254.55l-1.69,6.94a28.41,28.41,0,0,1,10,4.27c2.41,1.78,3.61,3.79,3.61,6a29.94,29.94,0,0,1-.32,4.18,30.79,30.79,0,0,1-.95,4.36l-19,65.46-72.33-68.78a14.27,14.27,0,0,1-2.19-3.58,9.67,9.67,0,0,1-.7-3.74,6.06,6.06,0,0,1,2.81-5.14c1.86-1.29,4.55-2.1,8.09-2.43l-2-7-54.7-.42q-9.75-.08-14,1.84c-2.84,1.29-4.27,3.29-4.3,6a7.72,7.72,0,0,0,.91,3.74,19.89,19.89,0,0,0,3.66,4.48L234,300.57l-17.57,60.69q-4.45,15.64-10.93,22.23t-17.28,6.59H168.67a21.12,21.12,0,0,1-10.92-2.58,13.62,13.62,0,0,1-6-7.38h-8.27l-6.15,24.54c-.42,2.26-.74,3.92-.95,5A12.83,12.83,0,0,0,136,412q0,7.11,7.21,10.4t23.32,3.3h43.69q29,0,43.89-13t26.5-53.9l2.2-7.67,42.61,50.83a38.28,38.28,0,0,1,4,5.45,8.23,8.23,0,0,1,1.25,3.89,5.57,5.57,0,0,1-2.64,5c-1.81,1.21-4.69,2.15-8.64,2.8l2.49,6.9,63-1q7.83-.12,10.88-1.68a5.17,5.17,0,0,0,3-5.12Q398.67,414.86,392.82,408.89Z"/><path d="M259.2,129.61c39.06,22.09,105.66-12,74.28-35.22C330,92.08,324.92,90.85,319,90.5c-1.68-9.38-5.1-21.63-11.25-17.77,0,0-9.3,5.38-20.13,2.74-1.24-.3-10.44-6.61-14.81,24.11C254,107.6,242.63,119.5,259.2,129.61Z"/></svg>